<?xml version="1.0" standalone="no"?>
<!DOCTYPE svg PUBLIC "-//W3C//DTD SVG 20010904//EN"
 "http://www.w3.org/TR/2001/REC-SVG-20010904/DTD/svg10.dtd">
<svg version="1.0" xmlns="http://www.w3.org/2000/svg"
 width="1024.000000pt" height="1024.000000pt" viewBox="0 0 1024.000000 1024.000000"
 preserveAspectRatio="xMidYMid meet">

<g transform="translate(0.000000,1024.000000) scale(0.100000,-0.100000)"
fill="#000000" stroke="none">
<path d="M1005 6201 c-49 -22 -73 -48 -91 -98 -17 -50 -20 -1564 -3 -1628 14
-50 64 -100 114 -114 54 -15 1674 -15 1727 -1 48 14 97 55 114 97 11 26 14
178 14 827 0 536 -3 804 -11 823 -15 42 -68 92 -109 103 -22 6 -354 10 -875
10 -794 0 -842 -1 -880 -19z m1523 -296 c2 -21 1 -54 -3 -72 l-6 -33 -64 0
-65 0 0 -130 0 -130 -150 0 -150 0 0 145 0 145 120 0 120 0 0 60 0 61 98 -3
97 -3 3 -40z m-868 -310 l0 -235 365 0 365 0 0 -325 0 -325 -150 0 -150 0 0
195 0 195 -212 -2 -213 -3 -3 -192 -2 -193 -160 0 -160 0 0 560 0 560 160 0
160 0 0 -235z"/>
<path d="M4269 5701 c-75 -76 2 -185 106 -151 104 34 76 180 -35 180 -33 0
-48 -6 -71 -29z"/>
<path d="M7112 5720 c-120 -25 -217 -102 -272 -213 -37 -77 -50 -143 -50 -262
0 -248 133 -404 365 -430 78 -8 186 9 252 41 95 46 174 149 190 249 l6 35 -89
0 -89 0 -23 -50 c-39 -85 -134 -128 -239 -109 -72 14 -120 51 -151 117 -24 51
-27 68 -27 173 0 109 2 119 30 174 53 103 151 146 265 115 53 -14 112 -71 130
-124 l12 -36 90 0 91 0 -7 33 c-3 17 -22 64 -41 104 -61 123 -158 181 -315
188 -47 2 -104 0 -128 -5z"/>
<path d="M8957 5716 c-62 -17 -124 -60 -162 -115 -27 -39 -30 -50 -30 -125 0
-73 3 -87 28 -124 35 -54 106 -94 215 -122 144 -37 185 -51 220 -77 27 -21 32
-30 32 -67 0 -54 -26 -88 -78 -104 -117 -35 -242 13 -259 100 l-5 28 -95 0
-95 0 7 -42 c16 -97 80 -179 170 -219 67 -29 195 -44 275 -30 87 14 131 33
182 79 56 50 80 108 80 191 0 78 -9 106 -53 156 -44 50 -109 80 -244 114 -128
32 -174 54 -193 94 -10 21 -10 32 2 60 26 64 142 85 227 42 34 -18 69 -69 69
-103 0 -23 2 -23 90 -20 l90 3 0 35 c-1 77 -51 161 -121 206 -81 51 -243 69
-352 40z"/>
<path d="M3410 5270 l0 -440 90 0 90 0 2 193 3 192 173 3 172 2 0 -195 0 -195
90 0 90 0 0 440 0 440 -90 0 -90 0 0 -170 0 -170 -175 0 -176 0 2 168 1 167
-91 3 -91 3 0 -441z"/>
<path d="M4550 5270 l0 -440 85 0 85 0 0 37 0 37 28 -27 c41 -39 93 -57 170
-57 91 0 151 22 202 73 64 65 92 131 98 236 12 219 -107 371 -291 371 -70 0
-113 -14 -159 -50 l-38 -31 0 146 0 145 -90 0 -90 0 0 -440z m410 57 c55 -37
75 -81 75 -167 0 -61 -5 -83 -24 -117 -58 -100 -212 -96 -263 7 -25 49 -24
161 2 217 36 80 138 109 210 60z"/>
<path d="M5310 5270 l0 -440 85 0 85 0 0 40 c0 47 5 49 33 14 53 -68 207 -87
305 -38 115 57 175 180 167 339 -4 80 -18 131 -54 186 -53 84 -131 128 -230
129 -73 0 -124 -17 -171 -57 l-40 -35 0 151 0 151 -90 0 -90 0 0 -440z m417
60 c99 -60 105 -263 10 -334 -16 -11 -47 -21 -79 -23 -70 -6 -115 19 -146 78
-20 37 -23 55 -19 119 4 87 24 132 70 160 43 26 121 26 164 0z"/>
<path d="M7710 5270 l0 -440 85 0 85 0 0 303 1 302 19 -55 c10 -30 59 -165
108 -300 l90 -245 75 -3 75 -3 20 53 c10 29 57 157 102 283 83 229 100 270 98
224 -1 -13 -1 -144 0 -291 l2 -268 85 0 85 0 0 440 0 441 -122 -3 -123 -3
-109 -307 -110 -307 -71 197 c-40 108 -89 248 -111 309 l-39 113 -122 0 -123
0 0 -440z"/>
<path d="M4250 5155 l0 -325 90 0 90 0 0 325 0 325 -90 0 -90 0 0 -325z"/>
<path d="M6082 5228 c3 -237 4 -256 25 -293 43 -81 105 -115 208 -115 74 0
126 18 168 57 l27 27 0 -37 0 -37 85 0 85 0 0 325 0 325 -89 0 -90 0 -3 -214
c-3 -200 -4 -217 -24 -243 -12 -15 -38 -34 -59 -42 -32 -13 -43 -13 -79 0 -70
24 -76 48 -76 292 l0 207 -91 0 -90 0 3 -252z"/>
</g>
</svg>
