<?xml version="1.0" standalone="no"?>
<!DOCTYPE svg PUBLIC "-//W3C//DTD SVG 20010904//EN"
 "http://www.w3.org/TR/2001/REC-SVG-20010904/DTD/svg10.dtd">
<svg version="1.0" xmlns="http://www.w3.org/2000/svg"
 width="1024.000000pt" height="1024.000000pt" viewBox="0 0 1024.000000 1024.000000"
 preserveAspectRatio="xMidYMid meet">

<g transform="translate(0.000000,1024.000000) scale(0.100000,-0.100000)"
fill="#ffffff" stroke="none">
<path d="M3335 7201 c-101 -17 -191 -84 -237 -179 l-33 -67 0 -1755 0 -1755
28 -57 c50 -103 136 -167 251 -189 33 -6 712 -8 1817 -7 l1764 3 57 27 c79 37
122 71 157 126 65 104 62 -20 59 1878 l-3 1719 -33 67 c-38 77 -92 130 -171
167 l-56 26 -1780 1 c-979 1 -1798 -1 -1820 -5z m3135 -691 l0 -200 -182 -2
-183 -3 0 -298 0 -297 -322 0 -323 0 0 294 c0 161 -3 308 -6 325 l-6 31 296 0
296 0 0 175 0 175 215 0 215 0 0 -200z m-1930 -600 l0 -480 785 0 785 0 0
-750 0 -750 -330 0 -330 0 0 445 0 445 -42 0 c-24 0 -227 1 -453 2 l-410 2 -3
-447 -2 -447 -330 0 -330 0 0 498 c0 273 -3 827 -7 1230 l-6 732 336 0 337 0
0 -480z"/>
</g>
</svg>